<svg xmlns="http://www.w3.org/2000/svg" fill="none" width="336" height="56" viewBox="0 0 504 84">
  <g fill="#fff">
    <path
      d="M50.24 38.77l3.84-2V6.73H51.2l-7.06 9.37h-.75l.4-10.47h30.5l.42 10.47h-.82l-6.86-9.37H64.1V36.7l3.77 2v1.03H50.24v-.96zM78.2 37.39V4.1l-2.94-1.17v-.62L85.88.39h1.1v15.78l.27-.28a14.2 14.2 0 019.12-3.44c4.66 0 6.72 2.62 6.72 7.58v17.36l2.46 1.38v1.03H91.57v-1.03l2.54-1.38V20.03c0-2.7-1.17-3.8-3.43-3.8-1.5 0-2.74.49-3.7 1.25v20.05l2.47 1.38v.96H75.46v-.96l2.75-1.52zM114.53 27.2c.28 5.5 2.75 9.78 8.57 9.78 2.81 0 4.8-1.31 6.65-2.28v1.1c-1.44 2-5.14 4.83-10.28 4.83-8.98 0-13.64-5.03-13.64-13.78 0-8.55 5-13.85 13.16-13.85 7.68 0 11.65 3.86 11.65 13.99v.27h-16.1v-.07zm-.13-1.25l7.95-.48c0-6.82-1.17-11.37-3.5-11.37-2.47 0-4.45 5.24-4.45 11.85zM0 53.03c0-14.47 9.53-19.64 20.15-19.64 4.53 0 8.77.76 11.17 1.72l.2 10.13H30.5l-6.24-9.78c-1.1-.48-2.05-.62-3.97-.62-5.62 0-8.57 6.54-8.43 17.3.13 12.88 2.33 18.73 7.54 18.73 1.37 0 2.4-.2 3.08-.55V56.54l-3.43-2v-1.1h16.6v1.24l-3.44 1.86v13.58a36.75 36.75 0 01-12.47 2.13C7.68 72.32 0 66.67 0 53.03zM35.44 46.28v-.83l11.17-1.93 1.23.07v22.05c0 2.68 1.3 3.44 3.43 3.44a4.7 4.7 0 003.63-1.72v-19.7l-3.01-1.31v-.9l11.1-2 1.1.07v25.29l3.01 1.24v.82l-10.96 1.38-1.1-.07v-3.3h-.28c-2.05 1.86-4.86 3.51-8.36 3.51-5.34 0-7.74-3.17-7.74-8V47.66l-3.22-1.37zM106.58 43.45l.9.07v8.13h.27c1.16-6 3.84-8.2 6.99-8.2.48 0 1.1.07 1.37.2v8.41c-.48-.13-1.44-.2-2.26-.2-2.54 0-4.39.48-6.03 1.24v16.12l2.53 1.38v1.03h-14.4V70.6l2.61-1.45V47.17l-3.01-.9v-.75l11.03-2.07z" />
    <path
      d="M134.48 44.14v-8.61l-3.02-1.1v-.7l11.24-2.06 1.1.14v36.93l3.08 1.1v.96l-11.1 1.52-.89-.07v-3.03h-.27a9.75 9.75 0 01-7.34 3.1c-6.03 0-10.48-4.62-10.48-14.13 0-9.99 5.14-14.95 12.88-14.95 2.26 0 3.98.42 4.8.9zm0 23.63V45.72c-.69-.48-1.23-1.03-3.08-.96-3.02.14-4.87 4.68-4.87 12.81 0 7.3 1.3 11.37 5.34 11.24a3.96 3.96 0 002.6-1.04zM159.15 43.45l.96.07v25.63l2.54 1.38v1.03h-14.4v-1.03l2.61-1.45v-21.5l-3.08-1.24v-.82l11.37-2.07zm1.03-6.96a4.84 4.84 0 01-4.93 4.76 4.8 4.8 0 110-9.58 4.9 4.9 0 014.93 4.82zM195.07 69.15V47.31l-3.02-1.1v-1.04l11.1-2.06 1.1.07v3.23h.28a14.68 14.68 0 019.46-3.5c4.8 0 6.99 2.26 6.99 7.36v18.74l2.6 1.45v1.03h-14.4v-1.03l2.61-1.45V50.9c0-2.82-1.23-3.92-3.5-3.92-1.43 0-2.66.34-3.83 1.24v21.01l2.54 1.45v1.03h-14.4v-1.03l2.47-1.52zM179.1 55.44v-3.65c0-5.51-1.17-7.3-4.6-7.3-.4 0-.75.06-1.16.06l-6.03 8.2h-.82v-7.58c2.6-.82 5.82-1.72 10.14-1.72 7.4 0 11.65 2.07 11.65 8.27v17.84l2.68.7v.68a11.62 11.62 0 01-5.42 1.24c-3.63 0-5.41-1.17-6.17-3.24h-.27c-1.58 2.14-3.77 3.31-7.2 3.31-4.38 0-7.4-2.75-7.4-7.5 0-4.62 2.81-7.1 8.64-8.2l5.96-1.11zm0 12.33V56.75l-1.85.14c-2.88.27-3.98 2.13-3.98 6.2 0 4.48 1.44 5.65 3.5 5.65 1.16 0 1.78-.35 2.33-.97zM82.52 55.44v-3.65c0-5.51-1.16-7.3-4.59-7.3-.41 0-.75.06-1.16.06l-6.04 8.2h-.82v-7.58c2.6-.82 5.83-1.72 10.15-1.72 7.4 0 11.65 2.07 11.65 8.27v17.84l2.67.7v.68a11.62 11.62 0 01-5.41 1.24c-3.64 0-5.42-1.17-6.17-3.24h-.28c-1.57 2.14-3.77 3.31-7.2 3.31-4.38 0-7.4-2.75-7.4-7.5 0-4.62 2.81-7.1 8.64-8.2l5.96-1.11zm0 12.33V56.75l-1.85.14c-2.88.27-3.97 2.13-3.97 6.2 0 4.48 1.44 5.65 3.5 5.65 1.23 0 1.84-.35 2.32-.97z" />
  </g>
  <path fill="#DCDCDC"
    d="M243.7 35.95c2.57 0 4.97.33 7.2 1 2.23.67 4.17 1.7 5.8 3.1a14.03 14.03 0 013.9 5.45c.97 2.2 1.45 4.83 1.45 7.9 0 3.2-.5 5.98-1.5 8.35a16.13 16.13 0 01-3.95 5.8 15.75 15.75 0 01-5.75 3.35 22 22 0 01-7 1.1H226.9v-.85l3.35-.7v-33l-3.35-.65v-.85h16.8zm-.4 35.15c1.27 0 2.35-.23 3.25-.7a5.33 5.33 0 002.25-2.6c.57-1.27.98-3 1.25-5.2.27-2.23.4-5.07.4-8.5 0-3.63-.15-6.57-.45-8.8-.3-2.27-.75-4.02-1.35-5.25a4.93 4.93 0 00-2.35-2.55 7.77 7.77 0 00-3.3-.65h-2.2V71.1h2.5zm46.26-13.75h-16.4c.17 3.37.92 6.03 2.25 8 1.37 1.93 3.78 2.9 7.25 2.9 1.13 0 2.2-.08 3.2-.25 1-.17 1.97-.45 2.9-.85v.8c-.77 1.17-2.08 2.27-3.95 3.3-1.87 1-4.15 1.5-6.85 1.5-4.6 0-8.08-1.3-10.45-3.9-2.37-2.63-3.55-6.18-3.55-10.65 0-4.37 1.22-7.82 3.65-10.35 2.47-2.57 5.78-3.85 9.95-3.85 4.2 0 7.25 1.1 9.15 3.3 1.9 2.17 2.85 5.28 2.85 9.35v.7zm-12.2-12.4c-1.3 0-2.33.92-3.1 2.75-.73 1.83-1.1 4.72-1.1 8.65l7.75-.35c0-4.27-.3-7.17-.9-8.7-.57-1.57-1.45-2.35-2.65-2.35zm41.06.5l-3.15 2.05-8.1 24.5h-5.5l-9.65-25.3-2.3-1.25v-.85h15.45v.85l-3.15 1.2 6.36 17.85h.25l5.7-17-3.85-2.05v-.85h7.94v.85zm25 11.9h-16.4c.17 3.37.92 6.03 2.25 8 1.37 1.93 3.78 2.9 7.25 2.9 1.13 0 2.2-.08 3.2-.25 1-.17 1.96-.45 2.9-.85v.8c-.77 1.17-2.08 2.27-3.95 3.3-1.87 1-4.15 1.5-6.85 1.5-4.6 0-8.08-1.3-10.45-3.9-2.37-2.63-3.55-6.18-3.55-10.65 0-4.37 1.22-7.82 3.65-10.35 2.46-2.57 5.78-3.85 9.95-3.85 4.2 0 7.25 1.1 9.15 3.3 1.9 2.17 2.85 5.28 2.85 9.35v.7zm-12.2-12.4c-1.3 0-2.34.92-3.1 2.75-.74 1.83-1.1 4.72-1.1 8.65l7.75-.35c0-4.27-.3-7.17-.9-8.7-.57-1.57-1.45-2.35-2.65-2.35zm13.6-10.85l11.1-1.6 1.1.15v37.7l2.84.8V72h-14.85v-.85l2.85-.8V36.1l-3.05-1.15v-.85zm30.36 38.65c-2.07 0-3.97-.33-5.7-1a13.2 13.2 0 01-4.46-2.9 13.54 13.54 0 01-2.9-4.6c-.66-1.83-1-3.85-1-6.05 0-2.2.34-4.18 1-5.95a12.04 12.04 0 012.86-4.45 12.7 12.7 0 014.4-2.85c1.73-.67 3.64-1 5.75-1 2.1 0 4.01.33 5.75 1a12.6 12.6 0 014.44 2.85c1.24 1.2 2.19 2.7 2.86 4.5.7 1.77 1.05 3.75 1.05 5.95s-.34 4.2-1 6a12.95 12.95 0 01-2.86 4.6 13.2 13.2 0 01-4.44 2.9c-1.74.67-3.66 1-5.75 1zm0-27.9a3 3 0 00-1.86.6c-.5.37-.93 1.05-1.3 2.05-.33 1-.6 2.38-.8 4.15a71.15 71.15 0 00-.25 6.6c0 2.7.09 4.93.25 6.7.2 1.73.47 3.12.8 4.15a4.51 4.51 0 001.36 2.15 3 3 0 001.85.6c.7 0 1.3-.2 1.8-.6.53-.43.96-1.15 1.3-2.15.33-1.03.58-2.43.75-4.2.2-1.77.3-4 .3-6.7 0-2.67-.09-4.87-.25-6.6-.17-1.73-.44-3.1-.8-4.1-.34-1-.77-1.68-1.3-2.05a3 3 0 00-1.85-.6zm44.78 12.65c0 2.67-.34 4.97-1.04 6.9a12.93 12.93 0 01-2.75 4.75 10.75 10.75 0 01-4.1 2.65c-1.54.57-3.15.85-4.86.85-1.03 0-1.96-.07-2.8-.2-.8-.13-1.4-.27-1.8-.4v9.1l3.25.7v.85h-15.25v-.85l2.85-.7v-33.4l-3-1.2v-.85l11.06-1.6 1.05.1v3.15h.3c.7-.83 1.7-1.6 3-2.3a9.43 9.43 0 014.7-1.1c1.3 0 2.51.25 3.64.75a7.14 7.14 0 013 2.3 11.2 11.2 0 012 4.2c.5 1.73.75 3.83.75 6.3zm-9.54 1c0-4.17-.44-7-1.3-8.5-.87-1.5-2.07-2.25-3.6-2.25-.57 0-1.1.07-1.6.2-.5.1-.94.22-1.3.35v22.1c.33.23.71.45 1.14.65.44.2.97.3 1.6.3 1.57 0 2.8-.95 3.7-2.85.9-1.9 1.36-5.23 1.36-10zm37.1-1.15h-16.4c.17 3.37.92 6.03 2.25 8 1.37 1.93 3.78 2.9 7.25 2.9 1.13 0 2.2-.08 3.2-.25 1-.17 1.97-.45 2.9-.85v.8c-.77 1.17-2.08 2.27-3.95 3.3-1.87 1-4.15 1.5-6.85 1.5-4.6 0-8.08-1.3-10.45-3.9-2.37-2.63-3.55-6.18-3.55-10.65 0-4.37 1.22-7.82 3.65-10.35 2.47-2.57 5.78-3.85 9.95-3.85 4.2 0 7.25 1.1 9.15 3.3 1.9 2.17 2.85 5.28 2.85 9.35v.7zm-12.2-12.4c-1.3 0-2.33.92-3.1 2.75-.73 1.83-1.1 4.72-1.1 8.65l7.75-.35c0-4.27-.3-7.17-.9-8.7-.57-1.57-1.45-2.35-2.65-2.35zm14.08.75l11.05-1.6.9.1V52h.25c.7-2.97 1.62-5.07 2.75-6.3a5.36 5.36 0 014.8-1.85c.27.03.47.08.6.15v8.25a5.34 5.34 0 00-1-.15 24.37 24.37 0 00-4.55.15c-.96.13-1.85.37-2.65.7V70.4l3.7.75V72h-15.7v-.85l2.85-.75V47.75l-3-1.2v-.85zm35.09 8.35a20.62 20.62 0 015.85 3.8c1.33 1.33 2 3.25 2 5.75 0 2.8-.97 5.02-2.9 6.65-1.93 1.6-4.72 2.4-8.35 2.4-1.63 0-3.27-.12-4.9-.35-1.63-.2-3.12-.55-4.45-1.05l-.3-8.1h.85l7.15 8.35.75.2c.27.03.52.05.75.05 1.53 0 2.65-.38 3.35-1.15a4.23 4.23 0 001.1-3.05c0-1.13-.33-2-1-2.6a14.3 14.3 0 00-3.35-2l-1.65-.75a20.45 20.45 0 01-5.85-3.85 7.6 7.6 0 01-2.05-5.55c0-2.8.93-4.98 2.8-6.55 1.87-1.57 4.47-2.35 7.8-2.35 1.37 0 2.77.07 4.2.2 1.43.13 2.72.37 3.85.7l.25 7.55h-.85l-5.45-7.3c-.3-.1-.6-.17-.9-.2-.3-.07-.58-.1-.85-.1-1.33 0-2.32.35-2.95 1.05-.63.7-.95 1.62-.95 2.75 0 1.23.33 2.15 1 2.75.67.6 1.83 1.28 3.5 2.05l1.55.7z" />
</svg>
